<svg width="198" height="23" viewBox="0 0 198 23" fill="none" xmlns="http://www.w3.org/2000/svg">
<path d="M37.4707 5.63693C37.4707 6.59292 37.8909 7.36229 38.7348 7.95264C39.5787 8.543 40.9074 9.01909 42.7281 9.38473C44.9295 9.83035 46.5634 10.5616 47.6264 11.5786C48.6893 12.5955 49.2208 13.9857 49.2208 15.7529C49.2208 17.5392 48.5421 19.0589 47.1811 20.3082C45.82 21.5575 44.0496 22.1821 41.8662 22.1821C39.55 22.1821 37.6862 21.5613 36.2785 20.3234C34.8708 19.0856 33.9838 17.4593 33.6211 15.4482L36.3503 13.9552C36.9249 17.5316 38.7528 19.3179 41.8375 19.3179C43.1411 19.3179 44.1789 18.9827 44.9546 18.3124C45.7303 17.6421 46.1181 16.8308 46.1181 15.8748C46.1181 14.7969 45.7159 13.9704 44.9115 13.3915C44.1071 12.8126 42.8035 12.3403 41.0044 11.9747C39.0329 11.59 37.46 10.8739 36.2929 9.82654C35.1258 8.77914 34.5404 7.40418 34.5404 5.69787C34.5404 4.0106 35.1832 2.63945 36.4652 1.58443C37.7473 0.529414 39.4063 0 41.4353 0C43.256 0 44.8109 0.457048 46.1037 1.37115C47.3965 2.28524 48.3194 3.59545 48.8761 5.30176L46.4054 6.82526C45.583 4.1858 43.9168 2.86417 41.4066 2.86417C40.2754 2.86417 39.3381 3.10793 38.5912 3.59545C37.8442 4.08297 37.4707 4.76473 37.4707 5.63693Z" fill="#171639"/>
<path d="M90.1562 21.7567V3.71848C90.1562 1.90172 91.546 0.427734 93.259 0.427734V18.6539C93.259 20.3675 91.8698 21.7567 90.1562 21.7567Z" fill="#171639"/>
<path d="M113.845 3.1384C115.77 5.2294 116.732 7.88028 116.732 11.091C116.732 14.3018 115.77 16.9527 113.845 19.0437C111.92 21.1347 109.539 22.1821 106.706 22.1821C103.873 22.1821 101.492 21.1347 99.5669 19.0437C97.6421 16.9527 96.6797 14.3018 96.6797 11.091C96.6797 7.88028 97.6421 5.2294 99.5669 3.1384C101.492 1.0474 103.869 0 106.706 0C109.539 0 111.92 1.0474 113.845 3.1384ZM101.779 16.9565C103.072 18.4495 104.713 19.196 106.706 19.196C108.699 19.196 110.34 18.4495 111.633 16.9565C112.926 15.4635 113.572 13.5096 113.572 11.091C113.572 8.67249 112.926 6.71861 111.633 5.22559C110.34 3.73256 108.699 2.98605 106.706 2.98605C104.713 2.98605 103.072 3.73256 101.779 5.22559C100.486 6.71861 99.8398 8.67249 99.8398 11.091C99.8398 13.5096 100.486 15.4635 101.779 16.9565Z" fill="#171639"/>
<path d="M188.606 21.7567V13.1946L182.207 0.427734H185.504L189.493 8.74601L189.716 9.20306L190.104 10.1781C190.122 10.1362 190.251 9.81246 190.492 9.20306L190.714 8.74601L194.704 0.427734H198.001L191.601 13.1946V18.4659C191.598 20.2827 190.258 21.7567 188.606 21.7567Z" fill="#171639"/>
<path d="M72.7495 0.427734H69.7617V21.7567C71.4118 21.7567 72.7495 20.419 72.7495 18.7689V0.427734Z" fill="#171639"/>
<path d="M85.7924 0.427734H82.8046V21.7567C84.4547 21.7567 85.7924 20.419 85.7924 18.7689V0.427734Z" fill="#171639"/>
<path d="M82.8051 21.7567H80.1764L72.75 0.427734H75.3787L82.8051 21.7567Z" fill="#171639"/>
<path d="M183.575 18.5959C184.113 20.1417 182.966 21.7567 181.329 21.7567L173.902 0.427734H177.249L183.575 18.5959Z" fill="#171639"/>
<path d="M163.125 21.754C165.117 21.754 166.878 20.4568 167.468 18.5538L168.199 16.1933H179.619L178.886 13.71H169.165C167.65 13.71 165.581 14.7117 165.053 16.2161L163.125 21.754Z" fill="#171639"/>
<path d="M173.902 0.427734H170.555L167.754 8.4756C167.313 9.74391 168.501 11.8844 169.726 12.4291L173.902 0.427734Z" fill="#171639"/>
<path d="M153.807 9.01758V11.8817H150.032V18.8898H146.93V12.8073C146.93 10.7125 148.531 9.01758 150.503 9.01758H153.807Z" fill="#171639"/>
<path d="M127.029 9.90234V12.7665H123.255V18.0791H120.152V13.692C120.152 11.5972 121.754 9.90234 123.725 9.90234H127.029Z" fill="#171639"/>
<path d="M158.019 10.2086C158.92 9.80103 159.66 9.20687 160.245 8.42608C160.831 7.64529 161.122 6.70453 161.122 5.60762C161.122 4.00414 160.558 2.73964 159.427 1.81411C158.296 0.888592 156.737 0.427734 154.744 0.427734H146.93V3.58137C146.93 6.70072 150.032 7.63386 150.032 7.63386V3.2919H154.514C156.927 3.2919 158.134 4.2479 158.134 6.15607C158.134 8.06425 156.927 9.02024 154.514 9.02024H151.551V11.8844H154.543C157.376 11.8844 158.795 13.0537 158.795 15.3885C158.795 17.7232 157.376 18.8925 154.543 18.8925H150.032V13.7126H146.93V21.7567H154.859C156.852 21.7567 158.533 21.1815 159.901 20.0351C161.269 18.8887 161.955 17.35 161.955 15.4189C161.955 13.0004 160.64 11.2636 158.019 10.2086Z" fill="#171639"/>
<path d="M123.255 0.427734H120.152V3.58137C120.152 6.70072 123.255 7.63386 123.255 7.63386V3.2919" fill="#171639"/>
<path d="M59.7168 9.26367V12.1278H55.9425V19.1359H52.8398V13.0534C52.8398 10.9586 54.4415 9.26367 56.413 9.26367H59.7168Z" fill="#171639"/>
<path d="M55.9425 0.427734H52.8398V3.58137C52.8398 6.70072 55.9425 7.63386 55.9425 7.63386V3.2919" fill="#171639"/>
<path d="M123.255 17.7607H120.152V21.7523C121.866 21.7523 123.255 20.3632 123.255 18.6496V17.7607Z" fill="#171639"/>
<path d="M130.495 12.4899C131.989 12.0824 133.156 11.3511 134 10.2961C134.844 9.24105 135.264 7.96132 135.264 6.45687C135.264 4.67057 134.65 3.21563 133.425 2.09967C132.2 0.983712 130.541 0.423828 128.455 0.423828H120.152V3.28419H123.255V3.288H128.254C130.857 3.288 132.161 4.39634 132.161 6.60922C132.161 8.80305 130.857 9.89996 128.254 9.89996H127.029V12.7641H127.22L130.243 18.5679C131.263 20.5252 133.287 21.7528 135.493 21.7528L130.495 12.4899Z" fill="#171639"/>
<path d="M55.9465 3.34894H66.059V0.423828H52.8438V3.57746H55.9465V3.34894Z" fill="#171639"/>
<path d="M65.2537 9.26074H56.3047V12.1211H65.2537V9.26074Z" fill="#171639"/>
<path d="M55.9465 18.8264V12.6943H52.8438V21.7515H66.1452V18.8264H55.9465Z" fill="#171639"/>
<path d="M2.56786 22.711H0C2.03428 20.2125 6.34963 13.6897 7.33676 7.5867C8.32388 1.48365 2.85689 4.71063 0 7.08699C7.7903 -0.241987 11.9167 -0.430764 13.0061 0.390971C17.9684 3.29591 10.1381 13.6387 5.60261 18.4469C9.15094 16.1283 13.2395 14.6603 14.8403 14.2161C25.3118 11.9841 25.4452 21.0121 25.712 22.711H14.7736C14.8536 14.2627 6.66978 19.1909 2.56786 22.711Z" fill="#171639"/>
<path d="M21.3875 0L21.2857 2.32773C21.1845 4.64376 19.317 6.4913 17 6.56771C19.3331 6.70236 21.1868 8.57897 21.2928 10.9135L21.3875 13L21.5355 10.963C21.7082 8.58439 23.619 6.70326 26 6.56771C23.6353 6.49078 21.712 4.63789 21.5468 2.27774L21.3875 0Z" fill="#171639"/>
</svg>
